M48
INCH
T01C0.0150
T02C0.0300
T03C0.0600
T04C0.0500
T05C0.0700
T06C0.0450
T07C0.0400
%
T01
X+002600Y+066750
X+010500Y+068450
X+023500Y+066200
X+015350Y+055950
X+081100Y+056400
X+082650Y+056400
X+086350Y+051750
X+094750Y+077700
X+070150Y+077750
X+094750Y+076850
X+082750Y+076900
X+088750Y+048650
X+082250Y+048650
X+079150Y+047100
X+071550Y+061450
X+090300Y+003150
X+049200Y+003100
X+084200Y+055350
X+096300Y+065800
X+093100Y+064200
X+087750Y+067100
X+074700Y+066600
X+093200Y+061650
X+087500Y+065750
X+077750Y+065800
X+081650Y+022250
X+081600Y+019900
X+052600Y+024450
X+078700Y+030600
X+060900Y+030150
X+095900Y+034300
X+082750Y+027150
X+046950Y+027150
X+094650Y+069650
X+097300Y+068850
X+094650Y+068850
X+088000Y+068850
X+087150Y+052450
X+096050Y+053100
X+055650Y+040850
X+044100Y+039450
X+020050Y+039200
X+063100Y+026600
X+014300Y+026600
X+018550Y+072800
X+017500Y+026600
X+057750Y+025500
X+025400Y+073850
X+008400Y+047500
X+019500Y+078450
X+022800Y+069850
X+029200Y+068300
X+023800Y+078400
X+057750Y+078400
X+018500Y+077900
X+024400Y+077200
X+023500Y+069850
X+029900Y+068950
X+037800Y+077200
X+016500Y+076600
X+033050Y+076650
X+029600Y+073300
X+036350Y+066450
X+054700Y+066350
X+035150Y+066050
X+055700Y+065750
X+036650Y+040050
X+069300Y+039850
X+034200Y+065100
X+048450Y+065100
X+048450Y+060800
X+034200Y+049850
X+009550Y+049850
X+018400Y+059500
X+038600Y+069900
X+050200Y+069900
X+087950Y+069650
X+051150Y+069500
X+024250Y+069900
X+039600Y+069400
X+024850Y+069400
X+040600Y+068850
X+060400Y+068850
X+037400Y+050850
X+053650Y+050850
X+037411Y+054599
X+031600Y+054600
X+006500Y+054650
X+002150Y+045150
X+041600Y+067800
X+064000Y+069100
X+052100Y+062950
X+026250Y+062950
X+066150Y+062950
X+072000Y+062950
X+058850Y+077250
X+077200Y+077250
X+058450Y+078300
X+076200Y+078300
X+070750Y+078300
X+070750Y+060750
X+070750Y+064200
X+016000Y+064150
X+014800Y+050850
X+021100Y+050850
X+065000Y+068550
X+042600Y+066800
X+035700Y+067000
X+034350Y+045500
X+048950Y+055550
X+019050Y+055550
X+081200Y+049350
X+049500Y+055100
X+018050Y+055100
X+080100Y+053400
X+080650Y+052550
X+072850Y+051250
X+060850Y+056500
X+006550Y+056450
X+060950Y+072950
X+074200Y+072800
X+062650Y+076700
X+079200Y+076700
X+072600Y+064750
X+061400Y+064600
X+034750Y+064600
X+034700Y+050800
X+022100Y+050800
X+058400Y+065950
X+071400Y+068650
X+064650Y+077800
X+036750Y+077800
X+037000Y+048450
X+038250Y+048450
X+007500Y+069900
X+056700Y+067350
X+019100Y+042200
X+012700Y+058450
X+005000Y+059200
X+008550Y+056950
X+078150Y+056950
X+079550Y+051800
X+079750Y+050550
X+009550Y+055850
X+014250Y+055850
X+014250Y+042650
X+053650Y+043450
X+078850Y+043450
X+074450Y+007250
X+031600Y+065650
X+079950Y+065250
X+012500Y+079400
X+059900Y+079400
X+003250Y+049200
X+003300Y+045250
X+003300Y+043450
X+003250Y+060500
X+003600Y+062350
X+003550Y+071250
X+059400Y+079950
X+020100Y+053150
X+032500Y+053150
X+021100Y+052650
X+029550Y+052650
X+038250Y+042200
X+027500Y+042200
X+034950Y+045150
X+037550Y+045150
X+037550Y+040450
X+052050Y+040450
X+069500Y+046550
X+032550Y+068350
X+059350Y+068350
X+059250Y+053600
X+067150Y+053600
X+048100Y+003650
X+074200Y+003650
X+030600Y+068950
X+037350Y+068950
X+037250Y+078900
X+082050Y+078900
X+082000Y+062350
X+072250Y+060000
X+072200Y+015600
X+080800Y+014950
X+071250Y+059550
X+071200Y+013650
X+068700Y+013650
X+070750Y+006850
X+070700Y+059050
X+071800Y+058550
X+071750Y+015100
X+080100Y+014850
X+051100Y+053550
X+055650Y+053550
X+047800Y+046100
X+047350Y+045350
X+046850Y+050350
X+066200Y+050800
X+063200Y+047550
X+036000Y+047550
X+036000Y+039750
X+046250Y+054600
X+068950Y+054700
X+037900Y+053150
X+063200Y+052950
X+050650Y+054100
X+028500Y+054100
X+050000Y+053550
X+031550Y+053600
X+066200Y+054150
X+051900Y+054150
X+048450Y+043200
X+016050Y+043150
X+072750Y+036800
X+010550Y+036750
X+028650Y+063900
X+025200Y+063450
X+005550Y+043900
X+052600Y+043950
X+002700Y+046550
X+079050Y+053450
X+092950Y+055350
X+092950Y+058150
X+008550Y+037250
X+061200Y+037250
X+079700Y+036850
X+012150Y+037700
X+068850Y+037700
X+008550Y+050350
X+035150Y+050350
X+046500Y+038250
X+093600Y+038150
X+093600Y+016550
X+023150Y+035150
X+041300Y+034100
X+043100Y+033550
X+023950Y+034050
X+041850Y+033550
X+025850Y+028750
X+043100Y+028750
X+015350Y+040400
X+007950Y+040400
X+046300Y+051700
X+067200Y+051700
X+030500Y+043500
X+046300Y+043500
X+044250Y+046500
X+054650Y+046550
X+045350Y+042200
X+051550Y+042250
X+056650Y+049900
X+052650Y+049850
X+030550Y+052650
X+061100Y+052650
X+038550Y+052650
X+007400Y+041850
X+018050Y+041850
X+024750Y+032500
X+024750Y+041500
X+014850Y+021700
X+023200Y+021150
X+015050Y+029250
X+020500Y+029250
X+005500Y+029250
X+012100Y+022350
X+023950Y+022350
X+012100Y+033150
X+024000Y+033100
X+011600Y+033600
X+031600Y+033650
X+036300Y+034800
X+025300Y+034800
X+039100Y+026050
X+006500Y+026100
X+046400Y+021650
X+044050Y+024000
X+025450Y+023950
X+007500Y+024000
X+045850Y+032050
X+045850Y+025450
X+013200Y+025450
X+008500Y+025450
X+045750Y+034600
X+049800Y+034600
X+048600Y+007000
X+073000Y+034550
X+073000Y+030700
X+065350Y+030700
X+054650Y+028800
X+070250Y+028850
X+063100Y+028250
X+056650Y+042350
X+079300Y+042300
X+054650Y+040400
X+080300Y+040300
X+052600Y+042950
X+079800Y+042950
X+051650Y+038700
X+064450Y+030650
X+012700Y+030750
X+077700Y+029450
X+091250Y+027200
X+008000Y+020050
X+020500Y+017750
X+035900Y+017750
X+028000Y+020550
X+011150Y+024550
X+021500Y+024550
X+021500Y+016550
X+033000Y+016550
X+060200Y+021600
X+016400Y+027100
X+060300Y+027800
X+035250Y+017250
X+007500Y+017250
X+047500Y+023900
X+074700Y+023800
X+046450Y+020600
X+060200Y+020750
X+062200Y+015050
X+069450Y+014400
X+069450Y+008700
X+049000Y+021150
X+049000Y+015750
X+084450Y+016800
X+056600Y+026050
X+069300Y+026050
X+069200Y+019500
X+058700Y+004200
X+084550Y+004250
X+067200Y+021300
X+075700Y+017650
X+050600Y+017700
X+083300Y+007000
X+085750Y+007000
X+076700Y+026450
X+075700Y+025950
X+084800Y+025950
X+005100Y+007200
X+062650Y+003650
X+022000Y+014300
X+064650Y+014250
X+013600Y+061450
X+013750Y+041000
X+048600Y+041050
X+048450Y+016450
X+063600Y+016400
X+010000Y+012500
X+010000Y+014900
X+030350Y+014900
X+059400Y+014850
X+059400Y+008150
X+009000Y+012500
X+009050Y+013800
X+033450Y+013750
X+065650Y+013700
X+032450Y+013200
X+072450Y+013150
X+072400Y+008200
X+007050Y+011550
X+011600Y+011500
X+029450Y+011500
X+073650Y+011500
X+018000Y+010900
X+073100Y+010900
X+014850Y+010250
X+021000Y+012050
X+071300Y+012050
X+071300Y+007750
X+026300Y+010250
X+019450Y+010250
X+031050Y+010250
X+037850Y+010250
X+041100Y+016000
X+073250Y+016950
X+046250Y+001500
X+069250Y+001500
X+045800Y+001000
X+077200Y+001000
X+049800Y+010250
X+052600Y+012550
X+078600Y+010850
X+057300Y+002050
X+069750Y+002050
X+058000Y+002600
X+078250Y+002600
X+002950Y+075650
X+027050Y+023250
X+045050Y+036250
X+045100Y+023250
X+030000Y+031450
X+100250Y+056660
X+100250Y+023900
T02
X+004000Y+006300
X+005000Y+006300
X+006000Y+006300
X+007000Y+006300
X+008000Y+006300
X+009000Y+006300
X+010000Y+006300
X+011000Y+006300
X+011000Y+009300
X+010000Y+009300
X+009000Y+009300
X+008000Y+009300
X+007000Y+009300
X+006000Y+009300
X+005000Y+009300
X+004000Y+009300
X+004500Y+019350
X+005500Y+019350
X+006500Y+019350
X+007500Y+019350
X+008500Y+019350
X+009500Y+019350
X+010500Y+019350
X+010500Y+022350
X+009500Y+022350
X+008500Y+022350
X+007500Y+022350
X+006500Y+022350
X+005500Y+022350
X+004500Y+022350
X+004500Y+032350
X+005500Y+032350
X+006500Y+032350
X+007500Y+032350
X+008500Y+032350
X+009500Y+032350
X+010500Y+032350
X+010500Y+035350
X+009500Y+035350
X+008500Y+035350
X+007500Y+035350
X+006500Y+035350
X+005500Y+035350
X+004500Y+035350
X+004550Y+045400
X+005550Y+045400
X+006550Y+045400
X+007550Y+045400
X+008550Y+045400
X+009550Y+045400
X+010550Y+045400
X+010550Y+048400
X+009550Y+048400
X+008550Y+048400
X+007550Y+048400
X+006550Y+048400
X+005550Y+048400
X+004550Y+048400
X+004550Y+058450
X+005550Y+058450
X+006550Y+058450
X+007550Y+058450
X+008550Y+058450
X+009550Y+058450
X+010550Y+058450
X+010550Y+061450
X+009550Y+061450
X+008550Y+061450
X+007550Y+061450
X+006550Y+061450
X+005550Y+061450
X+004550Y+061450
X+016000Y+006300
X+017000Y+006300
X+018000Y+006300
X+019000Y+006300
X+020000Y+006300
X+021000Y+006300
X+022000Y+006300
X+022000Y+009300
X+021000Y+009300
X+020000Y+009300
X+019000Y+009300
X+018000Y+009300
X+017000Y+009300
X+016000Y+009300
X+015500Y+019350
X+016500Y+019350
X+017500Y+019350
X+018500Y+019350
X+019500Y+019350
X+020500Y+019350
X+021500Y+019350
X+022500Y+019350
X+022500Y+022350
X+021500Y+022350
X+020500Y+022350
X+019500Y+022350
X+018500Y+022350
X+017500Y+022350
X+016500Y+022350
X+015500Y+022350
X+016100Y+032350
X+017100Y+032350
X+018100Y+032350
X+019100Y+032350
X+020100Y+032350
X+021100Y+032350
X+022100Y+032350
X+022100Y+035350
X+021100Y+035350
X+020100Y+035350
X+019100Y+035350
X+018100Y+035350
X+017100Y+035350
X+016100Y+035350
X+016100Y+045400
X+017100Y+045400
X+018100Y+045400
X+019100Y+045400
X+020100Y+045400
X+021100Y+045400
X+022100Y+045400
X+022100Y+048400
X+021100Y+048400
X+020100Y+048400
X+019100Y+048400
X+018100Y+048400
X+017100Y+048400
X+016100Y+048400
X+016050Y+058450
X+017050Y+058450
X+018050Y+058450
X+019050Y+058450
X+020050Y+058450
X+021050Y+058450
X+022050Y+058450
X+022050Y+061450
X+021050Y+061450
X+020050Y+061450
X+019050Y+061450
X+018050Y+061450
X+017050Y+061450
X+016050Y+061450
X+015500Y+071500
X+016500Y+071500
X+017500Y+071500
X+018500Y+071500
X+019500Y+071500
X+020500Y+071500
X+021500Y+071500
X+022500Y+071500
X+022500Y+074500
X+021500Y+074500
X+020500Y+074500
X+019500Y+074500
X+018500Y+074500
X+017500Y+074500
X+016500Y+074500
X+015500Y+074500
X+027450Y+006250
X+028450Y+006250
X+029450Y+006250
X+030450Y+006250
X+031450Y+006250
X+032450Y+006250
X+033450Y+006250
X+033450Y+009250
X+032450Y+009250
X+031450Y+009250
X+030450Y+009250
X+029450Y+009250
X+028450Y+009250
X+027450Y+009250
X+027000Y+019350
X+028000Y+019350
X+029000Y+019350
X+030000Y+019350
X+031000Y+019350
X+032000Y+019350
X+033000Y+019350
X+034000Y+019350
X+034000Y+022350
X+033000Y+022350
X+032000Y+022350
X+031000Y+022350
X+030000Y+022350
X+029000Y+022350
X+028000Y+022350
X+027000Y+022350
X+027600Y+032350
X+028600Y+032350
X+029600Y+032350
X+030600Y+032350
X+031600Y+032350
X+032600Y+032350
X+033600Y+032350
X+033600Y+035350
X+032600Y+035350
X+031600Y+035350
X+030600Y+035350
X+029600Y+035350
X+028600Y+035350
X+027600Y+035350
X+027500Y+045400
X+028500Y+045400
X+029500Y+045400
X+030500Y+045400
X+031500Y+045400
X+032500Y+045400
X+033500Y+045400
X+033500Y+048400
X+032500Y+048400
X+031500Y+048400
X+030500Y+048400
X+029500Y+048400
X+028500Y+048400
X+027500Y+048400
X+027600Y+058400
X+028600Y+058400
X+029600Y+058400
X+030600Y+058400
X+031600Y+058400
X+032600Y+058400
X+033600Y+058400
X+033600Y+061400
X+032600Y+061400
X+031600Y+061400
X+030600Y+061400
X+029600Y+061400
X+028600Y+061400
X+027600Y+061400
X+027000Y+071500
X+028000Y+071500
X+029000Y+071500
X+030000Y+071500
X+031000Y+071500
X+032000Y+071500
X+033000Y+071500
X+034000Y+071500
X+034000Y+074500
X+033000Y+074500
X+032000Y+074500
X+031000Y+074500
X+030000Y+074500
X+029000Y+074500
X+028000Y+074500
X+027000Y+074500
X+039100Y+006250
X+040100Y+006250
X+041100Y+006250
X+042100Y+006250
X+043100Y+006250
X+044100Y+006250
X+045100Y+006250
X+045100Y+009250
X+044100Y+009250
X+043100Y+009250
X+042100Y+009250
X+041100Y+009250
X+040100Y+009250
X+039100Y+009250
X+050600Y+006250
X+051600Y+006250
X+052600Y+006250
X+053600Y+006250
X+054600Y+006250
X+055600Y+006250
X+056600Y+006250
X+056600Y+009250
X+055600Y+009250
X+054600Y+009250
X+053600Y+009250
X+052600Y+009250
X+051600Y+009250
X+050600Y+009250
X+061650Y+006250
X+062650Y+006250
X+063650Y+006250
X+064650Y+006250
X+065650Y+006250
X+066650Y+006250
X+067650Y+006250
X+068650Y+006250
X+068650Y+009250
X+067650Y+009250
X+066650Y+009250
X+065650Y+009250
X+064650Y+009250
X+063650Y+009250
X+062650Y+009250
X+061650Y+009250
X+073200Y+006250
X+074200Y+006250
X+075200Y+006250
X+076200Y+006250
X+077200Y+006250
X+078200Y+006250
X+079200Y+006250
X+080200Y+006250
X+080200Y+009250
X+079200Y+009250
X+078200Y+009250
X+077200Y+009250
X+076200Y+009250
X+075200Y+009250
X+074200Y+009250
X+073200Y+009250
X+085300Y+006250
X+086300Y+006250
X+087300Y+006250
X+088300Y+006250
X+089300Y+006250
X+090300Y+006250
X+091300Y+006250
X+091300Y+009250
X+090300Y+009250
X+089300Y+009250
X+088300Y+009250
X+087300Y+009250
X+086300Y+009250
X+085300Y+009250
X+085300Y+032300
X+086300Y+032300
X+087300Y+032300
X+088300Y+032300
X+089300Y+032300
X+090300Y+032300
X+091300Y+032300
X+091300Y+035300
X+090300Y+035300
X+089300Y+035300
X+088300Y+035300
X+087300Y+035300
X+086300Y+035300
X+085300Y+035300
X+039150Y+019350
X+040150Y+019350
X+041150Y+019350
X+042150Y+019350
X+043150Y+019350
X+044150Y+019350
X+045150Y+019350
X+045150Y+022350
X+044150Y+022350
X+043150Y+022350
X+042150Y+022350
X+041150Y+022350
X+040150Y+022350
X+039150Y+022350
X+039100Y+032350
X+040100Y+032350
X+041100Y+032350
X+042100Y+032350
X+043100Y+032350
X+044100Y+032350
X+045100Y+032350
X+045100Y+035350
X+044100Y+035350
X+043100Y+035350
X+042100Y+035350
X+041100Y+035350
X+040100Y+035350
X+039100Y+035350
X+039100Y+045400
X+040100Y+045400
X+041100Y+045400
X+042100Y+045400
X+043100Y+045400
X+044100Y+045400
X+045100Y+045400
X+045100Y+048400
X+044100Y+048400
X+043100Y+048400
X+042100Y+048400
X+041100Y+048400
X+040100Y+048400
X+039100Y+048400
X+038600Y+058400
X+039600Y+058400
X+040600Y+058400
X+041600Y+058400
X+042600Y+058400
X+043600Y+058400
X+044600Y+058400
X+045600Y+058400
X+045600Y+061400
X+044600Y+061400
X+043600Y+061400
X+042600Y+061400
X+041600Y+061400
X+040600Y+061400
X+039600Y+061400
X+038600Y+061400
X+038600Y+071450
X+039600Y+071450
X+040600Y+071450
X+041600Y+071450
X+042600Y+071450
X+043600Y+071450
X+044600Y+071450
X+045600Y+071450
X+045600Y+074450
X+044600Y+074450
X+043600Y+074450
X+042600Y+074450
X+041600Y+074450
X+040600Y+074450
X+039600Y+074450
X+038600Y+074450
X+050200Y+071450
X+051200Y+071450
X+052200Y+071450
X+053200Y+071450
X+054200Y+071450
X+055200Y+071450
X+056200Y+071450
X+057200Y+071450
X+057200Y+074450
X+056200Y+074450
X+055200Y+074450
X+054200Y+074450
X+053200Y+074450
X+052200Y+074450
X+051200Y+074450
X+050200Y+074450
X+050700Y+058400
X+051700Y+058400
X+052700Y+058400
X+053700Y+058400
X+054700Y+058400
X+055700Y+058400
X+056700Y+058400
X+056700Y+061400
X+055700Y+061400
X+054700Y+061400
X+053700Y+061400
X+052700Y+061400
X+051700Y+061400
X+050700Y+061400
X+050600Y+019300
X+051600Y+019300
X+052600Y+019300
X+053600Y+019300
X+054600Y+019300
X+055600Y+019300
X+056600Y+019300
X+056600Y+022300
X+055600Y+022300
X+054600Y+022300
X+053600Y+022300
X+052600Y+022300
X+051600Y+022300
X+050600Y+022300
X+050650Y+032350
X+051650Y+032350
X+052650Y+032350
X+053650Y+032350
X+054650Y+032350
X+055650Y+032350
X+056650Y+032350
X+056650Y+035350
X+055650Y+035350
X+054650Y+035350
X+053650Y+035350
X+052650Y+035350
X+051650Y+035350
X+050650Y+035350
X+050650Y+045400
X+051650Y+045400
X+052650Y+045400
X+053650Y+045400
X+054650Y+045400
X+055650Y+045400
X+056650Y+045400
X+056650Y+048400
X+055650Y+048400
X+054650Y+048400
X+053650Y+048400
X+052650Y+048400
X+051650Y+048400
X+050650Y+048400
X+062200Y+019300
X+063200Y+019300
X+064200Y+019300
X+065200Y+019300
X+066200Y+019300
X+067200Y+019300
X+068200Y+019300
X+068200Y+022300
X+067200Y+022300
X+066200Y+022300
X+065200Y+022300
X+064200Y+022300
X+063200Y+022300
X+062200Y+022300
X+062200Y+032300
X+063200Y+032300
X+064200Y+032300
X+065200Y+032300
X+066200Y+032300
X+067200Y+032300
X+068200Y+032300
X+068200Y+035300
X+067200Y+035300
X+066200Y+035300
X+065200Y+035300
X+064200Y+035300
X+063200Y+035300
X+062200Y+035300
X+062200Y+045400
X+063200Y+045400
X+064200Y+045400
X+065200Y+045400
X+066200Y+045400
X+067200Y+045400
X+068200Y+045400
X+068200Y+048400
X+067200Y+048400
X+066200Y+048400
X+065200Y+048400
X+064200Y+048400
X+063200Y+048400
X+062200Y+048400
X+062150Y+058350
X+063150Y+058350
X+064150Y+058350
X+065150Y+058350
X+066150Y+058350
X+067150Y+058350
X+068150Y+058350
X+068150Y+061350
X+067150Y+061350
X+066150Y+061350
X+065150Y+061350
X+064150Y+061350
X+063150Y+061350
X+062150Y+061350
X+061650Y+071450
X+062650Y+071450
X+063650Y+071450
X+064650Y+071450
X+065650Y+071450
X+066650Y+071450
X+067650Y+071450
X+068650Y+071450
X+068650Y+074450
X+067650Y+074450
X+066650Y+074450
X+065650Y+074450
X+064650Y+074450
X+063650Y+074450
X+062650Y+074450
X+061650Y+074450
X+073700Y+019300
X+074700Y+019300
X+075700Y+019300
X+076700Y+019300
X+077700Y+019300
X+078700Y+019300
X+079700Y+019300
X+079700Y+022300
X+078700Y+022300
X+077700Y+022300
X+076700Y+022300
X+075700Y+022300
X+074700Y+022300
X+073700Y+022300
X+073700Y+032300
X+074700Y+032300
X+075700Y+032300
X+076700Y+032300
X+077700Y+032300
X+078700Y+032300
X+079700Y+032300
X+079700Y+035300
X+078700Y+035300
X+077700Y+035300
X+076700Y+035300
X+075700Y+035300
X+074700Y+035300
X+073700Y+035300
X+073700Y+045350
X+074700Y+045350
X+075700Y+045350
X+076700Y+045350
X+077700Y+045350
X+078700Y+045350
X+079700Y+045350
X+079700Y+048350
X+078700Y+048350
X+077700Y+048350
X+076700Y+048350
X+075700Y+048350
X+074700Y+048350
X+073700Y+048350
X+073650Y+058350
X+074650Y+058350
X+075650Y+058350
X+076650Y+058350
X+077650Y+058350
X+078650Y+058350
X+079650Y+058350
X+079650Y+061350
X+078650Y+061350
X+077650Y+061350
X+076650Y+061350
X+075650Y+061350
X+074650Y+061350
X+073650Y+061350
X+073200Y+071450
X+074200Y+071450
X+075200Y+071450
X+076200Y+071450
X+077200Y+071450
X+078200Y+071450
X+079200Y+071450
X+080200Y+071450
X+080200Y+074450
X+079200Y+074450
X+078200Y+074450
X+077200Y+074450
X+076200Y+074450
X+075200Y+074450
X+074200Y+074450
X+073200Y+074450
X+087750Y+047800
X+082750Y+047800
X+002800Y+065500
X+002800Y+068000
X+008500Y+067750
X+008500Y+065250
X+010000Y+067750
X+010000Y+065250
X+002750Y+074500
X+002750Y+069500
X+011850Y+068950
X+011850Y+063950
X+013750Y+063950
X+013750Y+068950
X+015500Y+063250
X+015500Y+069250
X+017500Y+069000
X+017500Y+064000
X+019500Y+064000
X+019500Y+069000
X+021500Y+069000
X+021500Y+064000
X+023500Y+064950
X+023500Y+067450
X+028000Y+066800
X+027000Y+065800
X+028000Y+064800
X+061700Y+067700
X+066700Y+067700
X+061700Y+066150
X+066700Y+066150
X+068950Y+067900
X+067950Y+066900
X+068950Y+065900
X+082900Y+014250
X+083900Y+015250
X+083900Y+013250
X+091800Y+013250
X+092800Y+014250
X+091800Y+015250
X+077400Y+011750
X+077400Y+016750
X+079200Y+011750
X+079200Y+016750
X+081250Y+011750
X+081250Y+016750
X+087250Y+011750
X+087250Y+016750
X+088750Y+015500
X+088750Y+013000
X+089000Y+011650
X+095000Y+011650
X+087450Y+025050
X+086450Y+026050
X+085450Y+025050
X+084000Y+027750
X+089000Y+027750
X+088950Y+023100
X+083950Y+023100
X+092850Y+035250
X+092850Y+031750
X+087750Y+029500
X+091250Y+029500
X+092650Y+025700
X+092650Y+020700
X+094400Y+022200
X+094400Y+027200
X+095900Y+027200
X+095900Y+022200
X+078700Y+037450
X+073700Y+037450
X+084250Y+053550
X+085250Y+052550
X+086250Y+053550
X+093300Y+053550
X+092300Y+054550
X+091300Y+053550
X+086250Y+060600
X+085250Y+061600
X+084250Y+060600
X+091300Y+060600
X+092300Y+059600
X+093300Y+060600
X+084250Y+067600
X+085250Y+066600
X+086250Y+067600
X+091300Y+067600
X+092300Y+066600
X+093300Y+067600
X+091300Y+074450
X+092300Y+073450
X+093300Y+074450
X+084250Y+074450
X+085250Y+073450
X+086250Y+074450
X+088600Y+078850
X+083600Y+078850
X+095650Y+078850
X+090650Y+078850
X+082750Y+071900
X+087750Y+071900
X+094800Y+071900
X+089800Y+071900
X+089800Y+070400
X+094800Y+070400
X+087750Y+070400
X+082750Y+070400
X+079300Y+063850
X+079300Y+068850
X+080750Y+068850
X+080750Y+063850
X+082700Y+064900
X+087700Y+064900
X+087700Y+063300
X+082700Y+063300
X+094750Y+063350
X+089750Y+063350
X+094750Y+064900
X+089750Y+064900
X+086450Y+056300
X+083950Y+056300
X+082800Y+057800
X+087800Y+057800
X+094800Y+056300
X+089800Y+056300
X+094800Y+057800
X+089800Y+057800
X+082750Y+050850
X+087750Y+050850
X+089800Y+050850
X+094800Y+050850
X+087750Y+049350
X+082750Y+049350
X+089800Y+049350
X+094800Y+049350
X+089800Y+047800
X+094800Y+047800
X+089800Y+046350
X+094800Y+046350
X+087750Y+046350
X+082750Y+046350
X+087750Y+044800
X+082750Y+044800
X+082750Y+043300
X+087750Y+043300
X+082750Y+041800
X+087750Y+041800
X+082750Y+040300
X+087750Y+040300
X+082750Y+038800
X+087750Y+038800
X+082750Y+037300
X+087750Y+037300
X+089800Y+044800
X+094800Y+044800
X+089800Y+043300
X+094800Y+043300
X+089800Y+041800
X+094800Y+041800
X+089800Y+040300
X+094800Y+040300
X+089800Y+038800
X+094800Y+038800
X+089800Y+037300
X+094800Y+037300
X+069000Y+015250
X+061000Y+015250
X+015500Y+077300
X+020500Y+077300
X+027050Y+024700
X+032050Y+024700
X+038050Y+024700
X+033050Y+024700
X+062150Y+027750
X+067150Y+027750
X+046250Y+017600
X+042250Y+017600
X+040750Y+017600
X+037250Y+017600
X+075200Y+029450
X+078700Y+029450
X+050750Y+029500
X+047250Y+029500
X+045000Y+038250
X+040000Y+038250
X+029500Y+040400
X+034500Y+040400
X+029500Y+038350
X+034500Y+038350
X+040100Y+029800
X+045100Y+029800
X+002500Y+061250
X+002500Y+057750
X+002450Y+035100
X+002450Y+031600
X+002550Y+022150
X+002550Y+018650
X+024550Y+048650
X+024550Y+045150
X+047550Y+074800
X+047550Y+071300
X+047350Y+035550
X+047350Y+032050
X+046900Y+009550
X+046900Y+006050
X+058400Y+061600
X+058400Y+058100
X+059450Y+048650
X+059450Y+045150
X+059000Y+022500
X+059000Y+019000
X+071400Y+074600
X+071400Y+071100
X+078950Y+051150
X+078950Y+054650
X+082750Y+035500
X+082750Y+032000
X+084000Y+009250
X+084000Y+005750
X+013500Y+009500
X+013500Y+006000
X+089300Y+074300
X+004500Y+071500
X+005500Y+071500
X+006500Y+071500
X+007500Y+071500
X+008500Y+071500
X+009500Y+071500
X+010500Y+071500
X+010500Y+074500
X+009500Y+074500
X+008500Y+074500
X+007500Y+074500
X+006500Y+074500
X+005500Y+074500
X+004500Y+074500
X+096250Y+047350
T03
X+080150Y+002000
X+083650Y+002000
X+081900Y+003500
X+002500Y+002500
X+017500Y+002500
X+097250Y+078750
X+097250Y+063750
X+097250Y+061000
X+097250Y+046000
T04
X+090800Y+018250
X+082800Y+021250
X+090800Y+020250
X+082800Y+019250
T05
X+005500Y+068850
X+005500Y+064100
T06
X+096000Y+021000
X+096000Y+010000
X+025250Y+027750
X+036250Y+027750
T07
X+076250Y+068850
X+076250Y+063850
X+077750Y+063850
X+077750Y+068850
X+074700Y+068850
X+074700Y+063850
X+073200Y+063850
X+073200Y+068850
M30
