M48
INCH
T01C0.0150
T02C0.0300
T03C0.0450
T04C0.0600
%
T01
X+047900Y+050350
X+009750Y+060900
X+009800Y+059900
X+009800Y+058850
X+009800Y+057850
X+009800Y+046350
X+009750Y+045350
X+009700Y+044400
X+009750Y+043350
X+009750Y+042350
X+009700Y+041400
X+014250Y+035700
X+009900Y+015550
X+009450Y+014550
X+008950Y+012050
X+008450Y+010550
X+007950Y+009500
X+053350Y+006050
X+067200Y+034500
X+055600Y+031750
X+017750Y+006050
X+050900Y+006050
X+052350Y+005950
X+032800Y+005000
X+032800Y+010250
X+062150Y+013000
X+017750Y+016000
X+050900Y+015500
X+062400Y+022750
X+034300Y+011900
X+034850Y+042850
X+035050Y+031350
X+018250Y+044400
X+043850Y+007000
X+047200Y+035550
X+059150Y+010200
X+059150Y+026250
X+052400Y+012550
X+061400Y+006950
X+057900Y+041750
X+035000Y+020550
X+035100Y+026650
X+033550Y+019800
X+034350Y+037150
X+034350Y+044850
X+062450Y+043600
X+033000Y+021550
X+033550Y+036100
X+033550Y+044100
X+043850Y+016550
X+057400Y+015500
X+057400Y+024250
X+058200Y+014750
X+058200Y+025000
X+049400Y+034600
X+060950Y+034550
X+032850Y+034050
X+032800Y+043350
X+061450Y+041100
X+047950Y+049350
X+020750Y+014100
X+020750Y+030850
X+021750Y+015100
X+021800Y+029800
X+033000Y+024150
X+032850Y+031350
X+015450Y+024850
X+041850Y+025350
X+020850Y+040600
X+020800Y+032100
X+020800Y+065900
X+021550Y+070900
X+020850Y+057850
X+022350Y+069700
X+020800Y+049850
X+022850Y+076400
X+021500Y+052350
X+022050Y+033100
X+022300Y+045850
X+022550Y+005000
X+023050Y+051600
X+023050Y+036850
X+036900Y+056900
X+066100Y+034550
X+025750Y+033550
X+069650Y+030950
X+073900Y+034850
X+017550Y+045150
X+029300Y+051850
X+046500Y+047850
X+046050Y+027550
X+017300Y+059400
X+036850Y+053850
X+045850Y+048850
X+045750Y+028550
X+036900Y+052800
X+023000Y+061650
X+022300Y+048350
X+069950Y+043800
X+047150Y+011950
X+047114Y+021500
X+052900Y+015300
X+027300Y+015000
X+010250Y+016550
T02
X+040900Y+063900
X+040900Y+064900
X+040900Y+065900
X+040900Y+066900
X+040900Y+067900
X+040900Y+068900
X+040900Y+069900
X+040900Y+070900
X+040900Y+071900
X+040900Y+072900
X+040900Y+073900
X+040900Y+074900
X+034900Y+074900
X+034900Y+073900
X+034900Y+072900
X+034900Y+071900
X+034900Y+070900
X+034900Y+069900
X+034900Y+068900
X+034900Y+067900
X+034900Y+066900
X+034900Y+065900
X+034900Y+064900
X+034900Y+063900
X+044900Y+058800
X+044900Y+057800
X+044900Y+056800
X+044900Y+055800
X+044900Y+054800
X+044900Y+053800
X+044900Y+052800
X+044900Y+051800
X+047900Y+051800
X+047900Y+052800
X+047900Y+053800
X+047900Y+054800
X+047900Y+055800
X+047900Y+056800
X+047900Y+057800
X+047900Y+058800
X+091500Y+058800
X+091500Y+057800
X+091500Y+056800
X+091500Y+055800
X+091500Y+054800
X+091500Y+053800
X+091500Y+052800
X+091500Y+051800
X+091500Y+050800
X+091500Y+049800
X+091500Y+048800
X+091500Y+047800
X+097500Y+047800
X+097500Y+048800
X+097500Y+049800
X+097500Y+050800
X+097500Y+051800
X+097500Y+052800
X+097500Y+053800
X+097500Y+054800
X+097500Y+055800
X+097500Y+056800
X+097500Y+057800
X+097500Y+058800
X+079050Y+058800
X+079050Y+057800
X+079050Y+056800
X+079050Y+055800
X+079050Y+054800
X+079050Y+053800
X+079050Y+052800
X+079050Y+051800
X+079050Y+050800
X+079050Y+049800
X+079050Y+048800
X+079050Y+047800
X+085050Y+047800
X+085050Y+048800
X+085050Y+049800
X+085050Y+050800
X+085050Y+051800
X+085050Y+052800
X+085050Y+053800
X+085050Y+054800
X+085050Y+055800
X+085050Y+056800
X+085050Y+057800
X+085050Y+058800
X+067000Y+058800
X+067000Y+057800
X+067000Y+056800
X+067000Y+055800
X+067000Y+054800
X+067000Y+053800
X+067000Y+052800
X+067000Y+051800
X+067000Y+050800
X+067000Y+049800
X+067000Y+048800
X+067000Y+047800
X+073000Y+047800
X+073000Y+048800
X+073000Y+049800
X+073000Y+050800
X+073000Y+051800
X+073000Y+052800
X+073000Y+053800
X+073000Y+054800
X+073000Y+055800
X+073000Y+056800
X+073000Y+057800
X+073000Y+058800
X+053950Y+058800
X+053950Y+057800
X+053950Y+056800
X+053950Y+055800
X+053950Y+054800
X+053950Y+053800
X+053950Y+052800
X+053950Y+051800
X+053950Y+050800
X+053950Y+049800
X+053950Y+048800
X+053950Y+047800
X+059950Y+047800
X+059950Y+048800
X+059950Y+049800
X+059950Y+050800
X+059950Y+051800
X+059950Y+052800
X+059950Y+053800
X+059950Y+054800
X+059950Y+055800
X+059950Y+056800
X+059950Y+057800
X+059950Y+058800
X+012750Y+008250
X+013750Y+008250
X+014750Y+008250
X+015750Y+008250
X+016750Y+008250
X+017750Y+008250
X+018750Y+008250
X+018750Y+011250
X+017750Y+011250
X+016750Y+011250
X+015750Y+011250
X+014750Y+011250
X+013750Y+011250
X+012750Y+011250
X+069900Y+008250
X+070900Y+008250
X+071900Y+008250
X+072900Y+008250
X+073900Y+008250
X+074900Y+008250
X+075900Y+008250
X+075900Y+011250
X+074900Y+011250
X+073900Y+011250
X+072900Y+011250
X+071900Y+011250
X+070900Y+011250
X+069900Y+011250
X+060950Y+008250
X+061950Y+008250
X+062950Y+008250
X+063950Y+008250
X+064950Y+008250
X+065950Y+008250
X+066950Y+008250
X+066950Y+011250
X+065950Y+011250
X+064950Y+011250
X+063950Y+011250
X+062950Y+011250
X+061950Y+011250
X+060950Y+011250
X+048900Y+008250
X+049900Y+008250
X+050900Y+008250
X+051900Y+008250
X+052900Y+008250
X+053900Y+008250
X+054900Y+008250
X+054900Y+011250
X+053900Y+011250
X+052900Y+011250
X+051900Y+011250
X+050900Y+011250
X+049900Y+011250
X+048900Y+011250
X+036850Y+008250
X+037850Y+008250
X+038850Y+008250
X+039850Y+008250
X+040850Y+008250
X+041850Y+008250
X+042850Y+008250
X+043850Y+008250
X+043850Y+011250
X+042850Y+011250
X+041850Y+011250
X+040850Y+011250
X+039850Y+011250
X+038850Y+011250
X+037850Y+011250
X+036850Y+011250
X+024850Y+008250
X+025850Y+008250
X+026850Y+008250
X+027850Y+008250
X+028850Y+008250
X+029850Y+008250
X+030850Y+008250
X+030850Y+011250
X+029850Y+011250
X+028850Y+011250
X+027850Y+011250
X+026850Y+011250
X+025850Y+011250
X+024850Y+011250
X+024850Y+070900
X+025850Y+070900
X+026850Y+070900
X+027850Y+070900
X+028850Y+070900
X+029850Y+070900
X+030850Y+070900
X+030850Y+073900
X+029850Y+073900
X+028850Y+073900
X+027850Y+073900
X+026850Y+073900
X+025850Y+073900
X+024850Y+073900
X+011850Y+070900
X+012850Y+070900
X+013850Y+070900
X+014850Y+070900
X+015850Y+070900
X+016850Y+070900
X+017850Y+070900
X+018850Y+070900
X+018850Y+073900
X+017850Y+073900
X+016850Y+073900
X+015850Y+073900
X+014850Y+073900
X+013850Y+073900
X+012850Y+073900
X+011850Y+073900
X+024850Y+062900
X+025850Y+062900
X+026850Y+062900
X+027850Y+062900
X+028850Y+062900
X+029850Y+062900
X+030850Y+062900
X+030850Y+065900
X+029850Y+065900
X+028850Y+065900
X+027850Y+065900
X+026850Y+065900
X+025850Y+065900
X+024850Y+065900
X+011750Y+062900
X+012750Y+062900
X+013750Y+062900
X+014750Y+062900
X+015750Y+062900
X+016750Y+062900
X+017750Y+062900
X+018750Y+062900
X+018750Y+065900
X+017750Y+065900
X+016750Y+065900
X+015750Y+065900
X+014750Y+065900
X+013750Y+065900
X+012750Y+065900
X+011750Y+065900
X+024850Y+054850
X+025850Y+054850
X+026850Y+054850
X+027850Y+054850
X+028850Y+054850
X+029850Y+054850
X+030850Y+054850
X+030850Y+057850
X+029850Y+057850
X+028850Y+057850
X+027850Y+057850
X+026850Y+057850
X+025850Y+057850
X+024850Y+057850
X+011750Y+054850
X+012750Y+054850
X+013750Y+054850
X+014750Y+054850
X+015750Y+054850
X+016750Y+054850
X+017750Y+054850
X+018750Y+054850
X+018750Y+057850
X+017750Y+057850
X+016750Y+057850
X+015750Y+057850
X+014750Y+057850
X+013750Y+057850
X+012750Y+057850
X+011750Y+057850
X+024850Y+046850
X+025850Y+046850
X+026850Y+046850
X+027850Y+046850
X+028850Y+046850
X+029850Y+046850
X+030850Y+046850
X+030850Y+049850
X+029850Y+049850
X+028850Y+049850
X+027850Y+049850
X+026850Y+049850
X+025850Y+049850
X+024850Y+049850
X+011750Y+046850
X+012750Y+046850
X+013750Y+046850
X+014750Y+046850
X+015750Y+046850
X+016750Y+046850
X+017750Y+046850
X+018750Y+046850
X+018750Y+049850
X+017750Y+049850
X+016750Y+049850
X+015750Y+049850
X+014750Y+049850
X+013750Y+049850
X+012750Y+049850
X+011750Y+049850
X+072900Y+036850
X+073900Y+036850
X+074900Y+036850
X+075900Y+036850
X+076900Y+036850
X+077900Y+036850
X+078900Y+036850
X+078900Y+039850
X+077900Y+039850
X+076900Y+039850
X+075900Y+039850
X+074900Y+039850
X+073900Y+039850
X+072900Y+039850
X+060950Y+036850
X+061950Y+036850
X+062950Y+036850
X+063950Y+036850
X+064950Y+036850
X+065950Y+036850
X+066950Y+036850
X+067950Y+036850
X+067950Y+039850
X+066950Y+039850
X+065950Y+039850
X+064950Y+039850
X+063950Y+039850
X+062950Y+039850
X+061950Y+039850
X+060950Y+039850
X+048900Y+036850
X+049900Y+036850
X+050900Y+036850
X+051900Y+036850
X+052900Y+036850
X+053900Y+036850
X+054900Y+036850
X+055900Y+036850
X+055900Y+039850
X+054900Y+039850
X+053900Y+039850
X+052900Y+039850
X+051900Y+039850
X+050900Y+039850
X+049900Y+039850
X+048900Y+039850
X+036850Y+036850
X+037850Y+036850
X+038850Y+036850
X+039850Y+036850
X+040850Y+036850
X+041850Y+036850
X+042850Y+036850
X+043850Y+036850
X+043850Y+039850
X+042850Y+039850
X+041850Y+039850
X+040850Y+039850
X+039850Y+039850
X+038850Y+039850
X+037850Y+039850
X+036850Y+039850
X+024850Y+036850
X+025850Y+036850
X+026850Y+036850
X+027850Y+036850
X+028850Y+036850
X+029850Y+036850
X+030850Y+036850
X+030850Y+039850
X+029850Y+039850
X+028850Y+039850
X+027850Y+039850
X+026850Y+039850
X+025850Y+039850
X+024850Y+039850
X+012750Y+036850
X+013750Y+036850
X+014750Y+036850
X+015750Y+036850
X+016750Y+036850
X+017750Y+036850
X+018750Y+036850
X+018750Y+039850
X+017750Y+039850
X+016750Y+039850
X+015750Y+039850
X+014750Y+039850
X+013750Y+039850
X+012750Y+039850
X+060950Y+027300
X+061950Y+027300
X+062950Y+027300
X+063950Y+027300
X+064950Y+027300
X+065950Y+027300
X+066950Y+027300
X+066950Y+030300
X+065950Y+030300
X+064950Y+030300
X+063950Y+030300
X+062950Y+030300
X+061950Y+030300
X+060950Y+030300
X+048900Y+027300
X+049900Y+027300
X+050900Y+027300
X+051900Y+027300
X+052900Y+027300
X+053900Y+027300
X+054900Y+027300
X+054900Y+030300
X+053900Y+030300
X+052900Y+030300
X+051900Y+030300
X+050900Y+030300
X+049900Y+030300
X+048900Y+030300
X+036850Y+027300
X+037850Y+027300
X+038850Y+027300
X+039850Y+027300
X+040850Y+027300
X+041850Y+027300
X+042850Y+027300
X+042850Y+030300
X+041850Y+030300
X+040850Y+030300
X+039850Y+030300
X+038850Y+030300
X+037850Y+030300
X+036850Y+030300
X+024850Y+027300
X+025850Y+027300
X+026850Y+027300
X+027850Y+027300
X+028850Y+027300
X+029850Y+027300
X+030850Y+027300
X+030850Y+030300
X+029850Y+030300
X+028850Y+030300
X+027850Y+030300
X+026850Y+030300
X+025850Y+030300
X+024850Y+030300
X+012750Y+027300
X+013750Y+027300
X+014750Y+027300
X+015750Y+027300
X+016750Y+027300
X+017750Y+027300
X+018750Y+027300
X+018750Y+030300
X+017750Y+030300
X+016750Y+030300
X+015750Y+030300
X+014750Y+030300
X+013750Y+030300
X+012750Y+030300
X+060950Y+017800
X+061950Y+017800
X+062950Y+017800
X+063950Y+017800
X+064950Y+017800
X+065950Y+017800
X+066950Y+017800
X+066950Y+020800
X+065950Y+020800
X+064950Y+020800
X+063950Y+020800
X+062950Y+020800
X+061950Y+020800
X+060950Y+020800
X+048900Y+017800
X+049900Y+017800
X+050900Y+017800
X+051900Y+017800
X+052900Y+017800
X+053900Y+017800
X+054900Y+017800
X+054900Y+020800
X+053900Y+020800
X+052900Y+020800
X+051900Y+020800
X+050900Y+020800
X+049900Y+020800
X+048900Y+020800
X+036850Y+017800
X+037850Y+017800
X+038850Y+017800
X+039850Y+017800
X+040850Y+017800
X+041850Y+017800
X+042850Y+017800
X+043850Y+017800
X+043850Y+020800
X+042850Y+020800
X+041850Y+020800
X+040850Y+020800
X+039850Y+020800
X+038850Y+020800
X+037850Y+020800
X+036850Y+020800
X+024850Y+017800
X+025850Y+017800
X+026850Y+017800
X+027850Y+017800
X+028850Y+017800
X+029850Y+017800
X+030850Y+017800
X+030850Y+020800
X+029850Y+020800
X+028850Y+020800
X+027850Y+020800
X+026850Y+020800
X+025850Y+020800
X+024850Y+020800
X+012750Y+017800
X+013750Y+017800
X+014750Y+017800
X+015750Y+017800
X+016750Y+017800
X+017750Y+017800
X+018750Y+017800
X+018750Y+020800
X+017750Y+020800
X+016750Y+020800
X+015750Y+020800
X+014750Y+020800
X+013750Y+020800
X+012750Y+020800
X+102650Y+035700
X+097650Y+035700
X+044450Y+069950
X+042904Y+070364
X+044450Y+072450
X+042904Y+072864
X+098700Y+042200
X+102700Y+042200
X+102650Y+034150
X+098650Y+034150
X+098650Y+032650
X+102650Y+032650
X+102650Y+031200
X+098650Y+031200
X+100650Y+029500
X+100650Y+028250
X+100000Y+025350
X+101250Y+025350
X+102650Y+022900
X+098650Y+022900
X+102650Y+021350
X+098650Y+021350
X+102650Y+019900
X+098650Y+019900
X+102650Y+018350
X+098650Y+018350
X+095900Y+033650
X+094900Y+032650
X+095900Y+031650
X+095900Y+026650
X+096900Y+027650
X+095900Y+028650
X+095900Y+021150
X+094900Y+020150
X+095900Y+019150
X+095900Y+011150
X+096900Y+012150
X+095900Y+013150
X+086400Y+002150
X+087400Y+003150
X+086400Y+004150
X+095900Y+004150
X+094900Y+003150
X+095900Y+002150
X+086400Y+006100
X+087400Y+007100
X+086400Y+008100
X+095900Y+041700
X+094900Y+040700
X+095900Y+039700
X+086950Y+040250
X+085950Y+041250
X+084950Y+040250
X+082900Y+030700
X+083900Y+029700
X+084900Y+030700
X+075950Y+023200
X+076950Y+022200
X+077950Y+023200
X+076400Y+005950
X+075400Y+004950
X+076400Y+003950
X+101100Y+016200
X+101100Y+014950
X+097200Y+015650
X+098000Y+015650
X+098650Y+013150
X+102650Y+013150
X+098650Y+011600
X+102650Y+011600
X+098650Y+010100
X+102650Y+010100
X+098650Y+008650
X+102650Y+008650
X+100000Y+005950
X+101250Y+005950
X+098600Y+003300
X+102600Y+003300
X+102600Y+001850
X+098600Y+001850
X+089200Y+041950
X+093200Y+041950
X+093200Y+040450
X+089200Y+040450
X+089200Y+038950
X+093200Y+038950
X+093200Y+037450
X+089200Y+037450
X+091150Y+035300
X+091150Y+034500
X+062650Y+024950
X+065150Y+024950
X+076450Y+035050
X+078950Y+035050
X+077200Y+033700
X+073200Y+033700
X+087400Y+037450
X+087400Y+033450
X+085950Y+037450
X+085950Y+033450
X+084400Y+037450
X+084400Y+033450
X+082900Y+033450
X+082900Y+037450
X+089200Y+030950
X+093200Y+030950
X+089200Y+029400
X+093200Y+029400
X+091550Y+027150
X+090750Y+027150
X+087400Y+026800
X+087400Y+027600
X+089900Y+024700
X+092400Y+024700
X+089900Y+023200
X+092400Y+023200
X+089900Y+021700
X+092400Y+021700
X+093150Y+020150
X+089150Y+020150
X+093150Y+018600
X+089150Y+018600
X+089150Y+017200
X+093150Y+017200
X+091150Y+015150
X+091150Y+014350
X+087100Y+014650
X+085850Y+014650
X+089150Y+012400
X+093150Y+012400
X+093150Y+010900
X+089150Y+010900
X+093150Y+009350
X+089150Y+009350
X+093150Y+007900
X+089150Y+007900
X+089150Y+006350
X+093150Y+006350
X+089150Y+004850
X+093150Y+004850
X+089150Y+003400
X+093150Y+003400
X+089150Y+001850
X+093150Y+001850
X+079600Y+005000
X+083100Y+005000
X+072400Y+019200
X+069900Y+019200
X+071650Y+027700
X+071650Y+031700
X+078900Y+032250
X+074900Y+032250
X+080400Y+030200
X+077900Y+030200
X+074150Y+029400
X+074150Y+030650
X+069650Y+028500
X+069650Y+029300
X+083700Y+026950
X+083700Y+024450
X+082200Y+024450
X+082200Y+026950
X+058450Y+040000
X+058450Y+036000
X+085200Y+024450
X+085200Y+028450
X+080650Y+024450
X+080650Y+028450
X+074950Y+027500
X+078950Y+027500
X+074950Y+025950
X+078950Y+025950
X+083600Y+010150
X+083600Y+007650
X+082100Y+007650
X+082100Y+010150
X+083650Y+015600
X+083650Y+013100
X+083350Y+011700
X+087350Y+011700
X+080600Y+007650
X+080600Y+011650
X+079150Y+011700
X+079150Y+007700
X+077600Y+007700
X+077600Y+011700
X+069350Y+006450
X+073350Y+006450
X+073350Y+004950
X+069350Y+004950
X+069350Y+003450
X+073350Y+003450
X+066850Y+005200
X+062850Y+005200
X+057350Y+005950
X+061350Y+005950
X+061350Y+004700
X+057350Y+004700
X+063150Y+006450
X+066650Y+006450
X+085150Y+021700
X+085150Y+017700
X+083200Y+017700
X+083200Y+021700
X+087150Y+021700
X+087150Y+017700
X+083200Y+023200
X+087200Y+023200
X+074900Y+012950
X+078900Y+012950
X+069400Y+012950
X+073400Y+012950
X+069400Y+022200
X+073400Y+022200
X+074900Y+017450
X+078900Y+017450
X+069400Y+023700
X+073400Y+023700
X+069400Y+025200
X+073400Y+025200
X+078900Y+014450
X+074900Y+014450
X+078900Y+015950
X+074900Y+015950
X+069400Y+017700
X+073400Y+017700
X+047900Y+024550
X+051900Y+024550
X+015250Y+032800
X+011250Y+032800
X+015250Y+034600
X+011250Y+034600
X+081150Y+018650
X+081150Y+021150
X+076500Y+019950
X+077300Y+019950
X+069650Y+015500
X+073150Y+015500
X+059900Y+003700
X+063400Y+003700
X+012500Y+076650
X+016000Y+076650
X+023850Y+076650
X+027350Y+076650
X+016300Y+044350
X+019800Y+044350
X+024850Y+044900
X+028350Y+044900
X+041400Y+044850
X+044900Y+044850
X+053450Y+044850
X+056950Y+044850
X+063500Y+054550
X+063500Y+051050
X+065450Y+044850
X+068950Y+044850
X+096250Y+045750
X+092750Y+045750
X+011150Y+003750
X+014650Y+003750
X+023750Y+003750
X+027250Y+003750
X+035800Y+003750
X+039300Y+003750
X+047900Y+003750
X+051400Y+003750
X+044400Y+061900
X+042400Y+061900
X+045929Y+065383
X+044425Y+065930
X+045450Y+068350
X+043946Y+068897
X+045950Y+073450
X+044404Y+073864
X+045950Y+076400
X+044446Y+076947
X+047450Y+078400
X+045946Y+078947
X+048450Y+076400
X+046946Y+076947
X+048450Y+073900
X+046946Y+074447
X+047950Y+068400
X+046446Y+068947
X+048450Y+065350
X+046946Y+065897
X+049450Y+069350
X+047946Y+069897
X+049450Y+072400
X+047946Y+072947
X+057950Y+062850
X+056446Y+063397
X+057950Y+061350
X+056446Y+061897
X+068503Y+062802
X+067000Y+063350
X+078000Y+062800
X+076496Y+063347
X+069000Y+061300
X+067496Y+061847
X+080050Y+061300
X+078546Y+061847
X+089550Y+062800
X+088046Y+063347
X+090550Y+061300
X+089046Y+061847
X+053453Y+068302
X+051950Y+068850
X+053953Y+065302
X+052450Y+065850
X+054953Y+071302
X+053450Y+071850
X+054953Y+073352
X+053450Y+073900
X+056003Y+067302
X+054500Y+067850
X+056003Y+075302
X+054500Y+075850
X+057503Y+077352
X+056000Y+077900
X+059500Y+078350
X+057996Y+078897
X+060003Y+066302
X+058500Y+066850
X+061503Y+076302
X+060000Y+076850
X+062503Y+064252
X+061000Y+064800
X+062503Y+070302
X+061000Y+070850
X+062503Y+072352
X+061000Y+072900
X+062503Y+074302
X+061000Y+074850
X+063003Y+067302
X+061500Y+067850
X+065503Y+069302
X+064000Y+069850
X+066003Y+066252
X+064500Y+066800
X+067500Y+071350
X+065996Y+071897
X+067500Y+073400
X+065996Y+073947
X+068503Y+067302
X+067000Y+067850
X+068503Y+075302
X+067000Y+075850
X+070053Y+077302
X+068550Y+077850
X+071003Y+066302
X+069500Y+066850
X+072003Y+063252
X+070500Y+063800
X+072053Y+078302
X+070550Y+078850
X+073003Y+069252
X+071500Y+069800
X+073145Y+076385
X+071600Y+076800
X+074053Y+071252
X+072550Y+071800
X+074053Y+073302
X+072550Y+073850
X+075003Y+065252
X+073500Y+065800
X+077500Y+067300
X+075996Y+067847
X+077550Y+070350
X+076046Y+070897
X+080050Y+068300
X+078546Y+068847
X+080050Y+070300
X+078546Y+070847
X+081050Y+073350
X+079546Y+073897
X+082050Y+066300
X+080546Y+066847
X+082100Y+075400
X+080554Y+075814
X+083050Y+063350
X+081546Y+063897
X+083550Y+077300
X+082046Y+077847
X+085050Y+068300
X+083546Y+068847
X+085800Y+065300
X+084296Y+065847
X+086050Y+070350
X+084546Y+070897
X+086050Y+077350
X+084546Y+077897
X+086550Y+072300
X+085046Y+072847
X+086550Y+075300
X+085046Y+075847
X+089550Y+072300
X+088046Y+072847
X+089050Y+068250
X+087546Y+068797
X+090600Y+069250
X+089096Y+069797
X+092550Y+073300
X+091046Y+073847
X+093100Y+066250
X+091596Y+066797
X+093600Y+074300
X+092096Y+074847
X+095100Y+063300
X+093554Y+063714
X+095550Y+075300
X+094046Y+075847
X+097550Y+064250
X+096046Y+064797
X+097550Y+068250
X+096046Y+068797
X+096550Y+076300
X+095046Y+076847
X+098550Y+069250
X+097046Y+069797
X+099100Y+071250
X+097596Y+071797
X+099600Y+076250
X+098096Y+076797
X+100050Y+074300
X+098546Y+074847
X+081600Y+017150
X+007250Y+075450
X+009300Y+075450
X+008800Y+061600
T03
X+099400Y+039150
X+101400Y+039150
X+095350Y+007600
X+097350Y+007600
T04
X+008500Y+054900
X+008500Y+070900
M30
