M48
INCH
T01C0.0150
T02C0.0300
T03C0.0450
T04C0.0600
%
T01
X+092800Y+050650
X+076500Y+070300
X+085100Y+050700
X+050150Y+050200
X+097850Y+038850
X+047150Y+051600
X+097850Y+037400
X+049150Y+050650
X+097850Y+035800
X+084300Y+047400
X+077450Y+070300
X+097800Y+034300
X+011850Y+063150
X+001900Y+063100
X+048150Y+051100
X+077250Y+049850
X+070450Y+059200
X+047450Y+039700
X+070850Y+022800
X+065450Y+022800
X+097850Y+033050
X+049450Y+038350
X+097800Y+031300
X+048450Y+038950
X+097850Y+029450
X+050450Y+037650
X+008850Y+037500
X+097900Y+026300
X+097950Y+024650
X+081950Y+033550
X+079950Y+011550
X+098000Y+023350
X+098150Y+021500
X+027000Y+017000
X+062950Y+016400
X+014550Y+018500
X+019550Y+018500
X+032900Y+018450
X+046400Y+018450
X+059500Y+018450
X+008850Y+066950
X+015700Y+067000
X+015850Y+033550
X+003250Y+043000
X+019550Y+043050
X+032900Y+043050
X+046150Y+043000
X+059500Y+043050
X+017650Y+068750
X+032900Y+058400
X+046250Y+058400
X+059500Y+058150
X+002650Y+035150
X+015400Y+019100
X+031900Y+019150
X+045400Y+019100
X+058500Y+019050
X+015700Y+005800
X+087600Y+005850
X+014950Y+015300
X+014950Y+008050
X+042750Y+076350
X+023050Y+066100
X+032400Y+066150
X+069650Y+066250
X+073300Y+066150
X+037350Y+070350
X+050700Y+064250
X+087600Y+064250
X+062950Y+065500
X+075300Y+065550
X+066400Y+055100
X+058400Y+055150
X+045100Y+055200
X+031800Y+055200
X+021050Y+055000
X+082750Y+012250
X+068200Y+054800
X+025700Y+054650
X+096439Y+063600
X+056800Y+063700
X+056800Y+059800
X+053450Y+059800
X+006200Y+051350
X+009350Y+051350
X+035900Y+051350
X+025550Y+049550
X+038900Y+049550
X+052150Y+049550
X+065500Y+049500
X+083550Y+048000
X+083550Y+062250
X+065500Y+062250
X+052150Y+062300
X+038900Y+062300
X+025550Y+062300
X+006850Y+052050
X+036850Y+051850
X+003450Y+052050
X+003600Y+008200
X+007800Y+052500
X+060500Y+052300
X+008850Y+053100
X+005550Y+052850
X+061500Y+052700
X+009850Y+053200
X+062500Y+053200
X+010850Y+053700
X+063500Y+053650
X+012800Y+050700
X+034850Y+050700
X+013600Y+050150
X+033900Y+050150
X+080750Y+042150
X+078300Y+042150
X+080750Y+022300
X+080250Y+021800
X+082400Y+036650
X+082400Y+041200
X+047150Y+042000
X+081350Y+024700
X+081350Y+014500
X+023100Y+014650
X+004650Y+022250
X+017400Y+047800
X+017450Y+021550
X+016700Y+047000
X+016800Y+022200
X+020500Y+042400
X+074350Y+041500
X+021550Y+041750
X+073300Y+040950
X+026450Y+044850
X+027800Y+044850
X+048200Y+042500
X+076150Y+041850
X+026300Y+054200
X+094500Y+054250
X+085900Y+058150
X+068200Y+049450
X+068200Y+012500
X+071500Y+025600
X+065500Y+025650
X+052400Y+025650
X+038900Y+025700
X+025550Y+025700
X+070250Y+045050
X+067500Y+044750
X+065600Y+040400
X+052450Y+040600
X+038900Y+040650
X+025550Y+040650
X+075550Y+042800
X+088650Y+043100
X+088650Y+035500
X+077200Y+040400
X+068900Y+040300
X+012700Y+034750
X+012850Y+038750
X+035900Y+038750
X+005150Y+038550
X+036900Y+038150
X+007900Y+026400
X+057500Y+026400
X+070200Y+027150
X+081750Y+009250
X+009000Y+027000
X+056900Y+026900
X+009850Y+027800
X+028850Y+028200
X+064550Y+026350
X+084550Y+026250
X+084600Y+012150
X+013350Y+034100
X+013500Y+039450
X+034800Y+039450
X+024550Y+031000
X+031900Y+031000
X+037900Y+031000
X+045450Y+031000
X+051450Y+031000
X+058500Y+031000
X+064500Y+031000
X+020500Y+029750
X+076350Y+030400
X+092050Y+030150
X+026450Y+032800
X+028250Y+032800
X+033900Y+040000
X+007850Y+040050
X+047450Y+029050
X+073300Y+029050
X+091550Y+028900
X+048500Y+028250
X+072300Y+028250
X+053400Y+035900
X+056200Y+035900
X+056200Y+027550
X+027500Y+027550
X+067650Y+010950
X+072850Y+010950
X+048850Y+010100
X+037900Y+017750
X+051400Y+017750
X+064500Y+017750
X+032850Y+016400
X+047400Y+015750
X+022050Y+015700
X+048400Y+015100
X+020050Y+015100
X+054000Y+022700
X+025050Y+014100
X+037850Y+014150
X+050000Y+010150
X+060000Y+010150
X+100550Y+050510
X+100550Y+017750
X+001900Y+060050
X+001900Y+048900
X+003300Y+013150
X+092700Y+073850
X+094800Y+007050
X+053250Y+013100
X+075300Y+029750
X+021550Y+028550
X+079650Y+023900
X+070950Y+047600
X+067550Y+047600
T02
X+005350Y+008750
X+006350Y+008750
X+007350Y+008750
X+008350Y+008750
X+009350Y+008750
X+010350Y+008750
X+011350Y+008750
X+012350Y+008750
X+012350Y+011750
X+011350Y+011750
X+010350Y+011750
X+009350Y+011750
X+008350Y+011750
X+007350Y+011750
X+006350Y+011750
X+005350Y+011750
X+005350Y+020850
X+006350Y+020850
X+007350Y+020850
X+008350Y+020850
X+009350Y+020850
X+010350Y+020850
X+011350Y+020850
X+011350Y+023850
X+010350Y+023850
X+009350Y+023850
X+008350Y+023850
X+007350Y+023850
X+006350Y+023850
X+005350Y+023850
X+005850Y+032850
X+006850Y+032850
X+007850Y+032850
X+008850Y+032850
X+009850Y+032850
X+010850Y+032850
X+011850Y+032850
X+011850Y+035850
X+010850Y+035850
X+009850Y+035850
X+008850Y+035850
X+007850Y+035850
X+006850Y+035850
X+005850Y+035850
X+005350Y+044800
X+006350Y+044800
X+007350Y+044800
X+008350Y+044800
X+009350Y+044800
X+010350Y+044800
X+011350Y+044800
X+011350Y+047800
X+010350Y+047800
X+009350Y+047800
X+008350Y+047800
X+007350Y+047800
X+006350Y+047800
X+005350Y+047800
X+005850Y+056800
X+006850Y+056800
X+007850Y+056800
X+008850Y+056800
X+009850Y+056800
X+010850Y+056800
X+011850Y+056800
X+011850Y+059800
X+010850Y+059800
X+009850Y+059800
X+008850Y+059800
X+007850Y+059800
X+006850Y+059800
X+005850Y+059800
X+005850Y+068850
X+006850Y+068850
X+007850Y+068850
X+008850Y+068850
X+009850Y+068850
X+010850Y+068850
X+011850Y+068850
X+011850Y+071850
X+010850Y+071850
X+009850Y+071850
X+008850Y+071850
X+007850Y+071850
X+006850Y+071850
X+005850Y+071850
X+019050Y+008750
X+020050Y+008750
X+021050Y+008750
X+022050Y+008750
X+023050Y+008750
X+024050Y+008750
X+025050Y+008750
X+025050Y+011750
X+024050Y+011750
X+023050Y+011750
X+022050Y+011750
X+021050Y+011750
X+020050Y+011750
X+019050Y+011750
X+018550Y+020850
X+019550Y+020850
X+020550Y+020850
X+021550Y+020850
X+022550Y+020850
X+023550Y+020850
X+024550Y+020850
X+025550Y+020850
X+025550Y+023850
X+024550Y+023850
X+023550Y+023850
X+022550Y+023850
X+021550Y+023850
X+020550Y+023850
X+019550Y+023850
X+018550Y+023850
X+018550Y+032850
X+019550Y+032850
X+020550Y+032850
X+021550Y+032850
X+022550Y+032850
X+023550Y+032850
X+024550Y+032850
X+025550Y+032850
X+025550Y+035850
X+024550Y+035850
X+023550Y+035850
X+022550Y+035850
X+021550Y+035850
X+020550Y+035850
X+019550Y+035850
X+018550Y+035850
X+018550Y+044800
X+019550Y+044800
X+020550Y+044800
X+021550Y+044800
X+022550Y+044800
X+023550Y+044800
X+024550Y+044800
X+025550Y+044800
X+025550Y+047800
X+024550Y+047800
X+023550Y+047800
X+022550Y+047800
X+021550Y+047800
X+020550Y+047800
X+019550Y+047800
X+018550Y+047800
X+018550Y+056800
X+019550Y+056800
X+020550Y+056800
X+021550Y+056800
X+022550Y+056800
X+023550Y+056800
X+024550Y+056800
X+025550Y+056800
X+025550Y+059800
X+024550Y+059800
X+023550Y+059800
X+022550Y+059800
X+021550Y+059800
X+020550Y+059800
X+019550Y+059800
X+018550Y+059800
X+019050Y+068850
X+020050Y+068850
X+021050Y+068850
X+022050Y+068850
X+023050Y+068850
X+024050Y+068850
X+025050Y+068850
X+025050Y+071850
X+024050Y+071850
X+023050Y+071850
X+022050Y+071850
X+021050Y+071850
X+020050Y+071850
X+019050Y+071850
X+031850Y+008750
X+032850Y+008750
X+033850Y+008750
X+034850Y+008750
X+035850Y+008750
X+036850Y+008750
X+037850Y+008750
X+038850Y+008750
X+038850Y+011750
X+037850Y+011750
X+036850Y+011750
X+035850Y+011750
X+034850Y+011750
X+033850Y+011750
X+032850Y+011750
X+031850Y+011750
X+031900Y+020850
X+032900Y+020850
X+033900Y+020850
X+034900Y+020850
X+035900Y+020850
X+036900Y+020850
X+037900Y+020850
X+038900Y+020850
X+038900Y+023850
X+037900Y+023850
X+036900Y+023850
X+035900Y+023850
X+034900Y+023850
X+033900Y+023850
X+032900Y+023850
X+031900Y+023850
X+031900Y+032850
X+032900Y+032850
X+033900Y+032850
X+034900Y+032850
X+035900Y+032850
X+036900Y+032850
X+037900Y+032850
X+038900Y+032850
X+038900Y+035850
X+037900Y+035850
X+036900Y+035850
X+035900Y+035850
X+034900Y+035850
X+033900Y+035850
X+032900Y+035850
X+031900Y+035850
X+031900Y+044800
X+032900Y+044800
X+033900Y+044800
X+034900Y+044800
X+035900Y+044800
X+036900Y+044800
X+037900Y+044800
X+038900Y+044800
X+038900Y+047800
X+037900Y+047800
X+036900Y+047800
X+035900Y+047800
X+034900Y+047800
X+033900Y+047800
X+032900Y+047800
X+031900Y+047800
X+031900Y+056800
X+032900Y+056800
X+033900Y+056800
X+034900Y+056800
X+035900Y+056800
X+036900Y+056800
X+037900Y+056800
X+038900Y+056800
X+038900Y+059800
X+037900Y+059800
X+036900Y+059800
X+035900Y+059800
X+034900Y+059800
X+033900Y+059800
X+032900Y+059800
X+031900Y+059800
X+032400Y+068850
X+033400Y+068850
X+034400Y+068850
X+035400Y+068850
X+036400Y+068850
X+037400Y+068850
X+038400Y+068850
X+038400Y+071850
X+037400Y+071850
X+036400Y+071850
X+035400Y+071850
X+034400Y+071850
X+033400Y+071850
X+032400Y+071850
X+045250Y+008800
X+046250Y+008800
X+047250Y+008800
X+048250Y+008800
X+049250Y+008800
X+050250Y+008800
X+051250Y+008800
X+052250Y+008800
X+052250Y+011800
X+051250Y+011800
X+050250Y+011800
X+049250Y+011800
X+048250Y+011800
X+047250Y+011800
X+046250Y+011800
X+045250Y+011800
X+045400Y+020850
X+046400Y+020850
X+047400Y+020850
X+048400Y+020850
X+049400Y+020850
X+050400Y+020850
X+051400Y+020850
X+052400Y+020850
X+052400Y+023850
X+051400Y+023850
X+050400Y+023850
X+049400Y+023850
X+048400Y+023850
X+047400Y+023850
X+046400Y+023850
X+045400Y+023850
X+045450Y+032900
X+046450Y+032900
X+047450Y+032900
X+048450Y+032900
X+049450Y+032900
X+050450Y+032900
X+051450Y+032900
X+052450Y+032900
X+052450Y+035900
X+051450Y+035900
X+050450Y+035900
X+049450Y+035900
X+048450Y+035900
X+047450Y+035900
X+046450Y+035900
X+045450Y+035900
X+045150Y+044800
X+046150Y+044800
X+047150Y+044800
X+048150Y+044800
X+049150Y+044800
X+050150Y+044800
X+051150Y+044800
X+052150Y+044800
X+052150Y+047800
X+051150Y+047800
X+050150Y+047800
X+049150Y+047800
X+048150Y+047800
X+047150Y+047800
X+046150Y+047800
X+045150Y+047800
X+045150Y+056800
X+046150Y+056800
X+047150Y+056800
X+048150Y+056800
X+049150Y+056800
X+050150Y+056800
X+051150Y+056800
X+052150Y+056800
X+052150Y+059800
X+051150Y+059800
X+050150Y+059800
X+049150Y+059800
X+048150Y+059800
X+047150Y+059800
X+046150Y+059800
X+045150Y+059800
X+045600Y+068850
X+046600Y+068850
X+047600Y+068850
X+048600Y+068850
X+049600Y+068850
X+050600Y+068850
X+051600Y+068850
X+051600Y+071850
X+050600Y+071850
X+049600Y+071850
X+048600Y+071850
X+047600Y+071850
X+046600Y+071850
X+045600Y+071850
X+059000Y+008800
X+060000Y+008800
X+061000Y+008800
X+062000Y+008800
X+063000Y+008800
X+064000Y+008800
X+065000Y+008800
X+065000Y+011800
X+064000Y+011800
X+063000Y+011800
X+062000Y+011800
X+061000Y+011800
X+060000Y+011800
X+059000Y+011800
X+058500Y+020850
X+059500Y+020850
X+060500Y+020850
X+061500Y+020850
X+062500Y+020850
X+063500Y+020850
X+064500Y+020850
X+065500Y+020850
X+065500Y+023850
X+064500Y+023850
X+063500Y+023850
X+062500Y+023850
X+061500Y+023850
X+060500Y+023850
X+059500Y+023850
X+058500Y+023850
X+058500Y+032950
X+059500Y+032950
X+060500Y+032950
X+061500Y+032950
X+062500Y+032950
X+063500Y+032950
X+064500Y+032950
X+065500Y+032950
X+065500Y+035950
X+064500Y+035950
X+063500Y+035950
X+062500Y+035950
X+061500Y+035950
X+060500Y+035950
X+059500Y+035950
X+058500Y+035950
X+058500Y+044800
X+059500Y+044800
X+060500Y+044800
X+061500Y+044800
X+062500Y+044800
X+063500Y+044800
X+064500Y+044800
X+065500Y+044800
X+065500Y+047800
X+064500Y+047800
X+063500Y+047800
X+062500Y+047800
X+061500Y+047800
X+060500Y+047800
X+059500Y+047800
X+058500Y+047800
X+058500Y+056800
X+059500Y+056800
X+060500Y+056800
X+061500Y+056800
X+062500Y+056800
X+063500Y+056800
X+064500Y+056800
X+065500Y+056800
X+065500Y+059800
X+064500Y+059800
X+063500Y+059800
X+062500Y+059800
X+061500Y+059800
X+060500Y+059800
X+059500Y+059800
X+058500Y+059800
X+058900Y+068900
X+059900Y+068900
X+060900Y+068900
X+061900Y+068900
X+062900Y+068900
X+063900Y+068900
X+064900Y+068900
X+064900Y+071900
X+063900Y+071900
X+062900Y+071900
X+061900Y+071900
X+060900Y+071900
X+059900Y+071900
X+058900Y+071900
X+071800Y+008850
X+072800Y+008850
X+073800Y+008850
X+074800Y+008850
X+075800Y+008850
X+076800Y+008850
X+077800Y+008850
X+078800Y+008850
X+078800Y+011850
X+077800Y+011850
X+076800Y+011850
X+075800Y+011850
X+074800Y+011850
X+073800Y+011850
X+072800Y+011850
X+071800Y+011850
X+072300Y+020900
X+073300Y+020900
X+074300Y+020900
X+075300Y+020900
X+076300Y+020900
X+077300Y+020900
X+078300Y+020900
X+078300Y+023900
X+077300Y+023900
X+076300Y+023900
X+075300Y+023900
X+074300Y+023900
X+073300Y+023900
X+072300Y+023900
X+072300Y+032900
X+073300Y+032900
X+074300Y+032900
X+075300Y+032900
X+076300Y+032900
X+077300Y+032900
X+078300Y+032900
X+078300Y+035900
X+077300Y+035900
X+076300Y+035900
X+075300Y+035900
X+074300Y+035900
X+073300Y+035900
X+072300Y+035900
X+072250Y+044850
X+073250Y+044850
X+074250Y+044850
X+075250Y+044850
X+076250Y+044850
X+077250Y+044850
X+078250Y+044850
X+078250Y+047850
X+077250Y+047850
X+076250Y+047850
X+075250Y+047850
X+074250Y+047850
X+073250Y+047850
X+072250Y+047850
X+072250Y+056900
X+073250Y+056900
X+074250Y+056900
X+075250Y+056900
X+076250Y+056900
X+077250Y+056900
X+078250Y+056900
X+078250Y+059900
X+077250Y+059900
X+076250Y+059900
X+075250Y+059900
X+074250Y+059900
X+073250Y+059900
X+072250Y+059900
X+072250Y+068950
X+073250Y+068950
X+074250Y+068950
X+075250Y+068950
X+076250Y+068950
X+077250Y+068950
X+078250Y+068950
X+078250Y+071950
X+077250Y+071950
X+076250Y+071950
X+075250Y+071950
X+074250Y+071950
X+073250Y+071950
X+072250Y+071950
X+085600Y+008850
X+086600Y+008850
X+087600Y+008850
X+088600Y+008850
X+089600Y+008850
X+090600Y+008850
X+091600Y+008850
X+091600Y+011850
X+090600Y+011850
X+089600Y+011850
X+088600Y+011850
X+087600Y+011850
X+086600Y+011850
X+085600Y+011850
X+086050Y+069050
X+085050Y+072050
X+086050Y+072050
X+087050Y+072050
X+088050Y+072050
X+089050Y+072050
X+090050Y+072050
X+091050Y+072050
X+087050Y+069050
X+088050Y+069050
X+089050Y+069050
X+090050Y+069050
X+091050Y+069050
X+091050Y+068300
X+090050Y+068300
X+089050Y+068300
X+088050Y+068300
X+087050Y+068300
X+086050Y+068300
X+085050Y+068300
X+085050Y+072800
X+086050Y+072800
X+087050Y+072800
X+088050Y+072800
X+089050Y+072800
X+090050Y+072800
X+091050Y+072800
X+085050Y+069050
X+083100Y+014350
X+086600Y+014350
X+083050Y+004350
X+086550Y+004350
X+072200Y+066950
X+068700Y+066950
X+057250Y+015450
X+052250Y+015450
X+019550Y+054550
X+024550Y+054550
X+088600Y+014350
X+093600Y+014350
X+088600Y+004350
X+093600Y+004350
X+061000Y+075550
X+056000Y+075550
X+044600Y+064900
X+049600Y+064900
X+018500Y+040800
X+023500Y+040800
X+023550Y+029800
X+018550Y+029800
X+079250Y+066950
X+074250Y+066950
X+031400Y+065400
X+036400Y+065400
X+031400Y+066900
X+036400Y+066900
X+012300Y+014300
X+007300Y+014300
X+019550Y+017600
X+024550Y+017600
X+003800Y+072100
X+003800Y+068600
X+004200Y+060050
X+004200Y+056550
X+001950Y+036850
X+001950Y+033350
X+002350Y+024800
X+002350Y+021300
X+002550Y+009650
X+002550Y+013150
X+016600Y+011950
X+016600Y+008450
X+029050Y+048200
X+029050Y+044700
X+041800Y+072250
X+041800Y+068750
X+041850Y+060150
X+041850Y+056650
X+041800Y+048200
X+041800Y+044700
X+041950Y+036150
X+041950Y+032650
X+041900Y+024150
X+041900Y+020650
X+054900Y+012050
X+054900Y+008550
X+068900Y+072200
X+068900Y+068700
X+068800Y+060150
X+068800Y+056650
X+068800Y+048200
X+068800Y+044700
X+066900Y+036100
X+066900Y+032600
X+066950Y+024150
X+066950Y+020650
X+083600Y+011550
X+083600Y+008050
T03
X+053900Y+075550
X+043900Y+075550
X+041400Y+075550
X+031400Y+075550
T04
X+029900Y+075550
X+014900Y+075550
X+090450Y+056750
X+090450Y+041750
M30
